<?xml version="1.0" encoding="utf-8"?>
<svg xmlns="http://www.w3.org/2000/svg" viewBox="0 0 80 80" fill="#000000"><path d="M 28.894531 15 C 26.003906 15 23.394531 16.558594 21.90625 19 L 14 19 L 14 21 L 23.039063 21 L 23.316406 20.449219 C 24.375 18.332031 26.53125 17 28.894531 17 L 56.300781 17 C 58.152344 17 59.789063 18.335938 59.980469 20.121094 C 60.117188 21.40625 59.5625 22.519531 58.644531 23.238281 L 56.550781 24.886719 L 59.210938 25.027344 C 61.332031 25.136719 63 26.851563 63 29 C 63 30.359375 62.324219 31.542969 61.292969 32.269531 L 59.316406 33.65625 L 61.691406 34.074219 C 63.570313 34.402344 65 36.019531 65 38 C 65 39.359375 64.324219 40.542969 63.292969 41.269531 L 61.316406 42.65625 L 63.691406 43.074219 C 65.636719 43.414063 67.097656 45.121094 66.996094 47.199219 C 66.890625 49.339844 64.976563 51 62.78125 51 L 37.457031 51 L 37.699219 52.199219 C 38.121094 54.316406 38.578125 56.699219 38.929688 58.765625 C 39.28125 60.828125 39.515625 62.636719 39.515625 63.359375 C 39.511719 65.925781 38.746094 68.695313 37.515625 70.734375 C 36.285156 72.773438 34.679688 74 33 74 L 31 74 L 31 63.78125 L 23.203125 47 L 14 47 L 14 49 L 21.925781 49 L 29 64.21875 L 29 76 L 33 76 C 35.625 76 37.78125 74.167969 39.230469 71.765625 C 40.675781 69.367188 41.511719 66.3125 41.515625 63.359375 C 41.515625 62.273438 41.257813 60.527344 40.902344 58.429688 C 40.609375 56.710938 40.238281 54.808594 39.882813 53 L 62.78125 53 C 65.988281 53 68.832031 50.558594 68.992188 47.296875 C 69.113281 44.792969 67.648438 42.664063 65.542969 41.660156 C 66.378906 40.628906 67 39.425781 67 38 C 67 35.621094 65.570313 33.617188 63.550781 32.652344 C 64.382813 31.625 65 30.421875 65 29 C 65 26.394531 63.285156 24.257813 60.953125 23.4375 C 61.636719 22.417969 62.109375 21.25 61.96875 19.90625 C 61.660156 17.046875 59.117188 15 56.300781 15 Z M 15 23 C 14.449219 23 14 23.449219 14 24 C 14 24.550781 14.449219 25 15 25 C 15.550781 25 16 24.550781 16 24 C 16 23.449219 15.550781 23 15 23 Z M 22 23 C 21.449219 23 21 23.449219 21 24 C 21 24.550781 21.449219 25 22 25 C 22.550781 25 23 24.550781 23 24 C 23 23.449219 22.550781 23 22 23 Z M 15 27 C 14.449219 27 14 27.449219 14 28 C 14 28.550781 14.449219 29 15 29 C 15.550781 29 16 28.550781 16 28 C 16 27.449219 15.550781 27 15 27 Z M 22 27 C 21.449219 27 21 27.449219 21 28 C 21 28.550781 21.449219 29 22 29 C 22.550781 29 23 28.550781 23 28 C 23 27.449219 22.550781 27 22 27 Z M 15 31 C 14.449219 31 14 31.449219 14 32 C 14 32.550781 14.449219 33 15 33 C 15.550781 33 16 32.550781 16 32 C 16 31.449219 15.550781 31 15 31 Z M 15 35 C 14.449219 35 14 35.449219 14 36 C 14 36.550781 14.449219 37 15 37 C 15.550781 37 16 36.550781 16 36 C 16 35.449219 15.550781 35 15 35 Z" fill="#000000"/></svg>
