<?xml version="1.0" encoding="utf-8"?>
<svg xmlns="http://www.w3.org/2000/svg" viewBox="0 0 80 80" fill="#000000"><path d="M 29 8 L 29 19.78125 L 21.925781 35 L 14 35 L 14 37 L 23.203125 37 L 31 20.21875 L 31 10 L 33 10 C 34.679688 10 36.285156 11.226563 37.515625 13.265625 C 38.746094 15.304688 39.511719 18.074219 39.515625 20.640625 C 39.515625 21.363281 39.28125 23.171875 38.929688 25.234375 C 38.578125 27.300781 38.121094 29.683594 37.699219 31.800781 L 37.457031 33 L 62.78125 33 C 64.976563 33 66.890625 34.660156 66.996094 36.800781 C 67.097656 38.878906 65.636719 40.585938 63.691406 40.925781 L 61.316406 41.34375 L 63.292969 42.730469 C 64.324219 43.457031 65 44.640625 65 46 C 65 47.980469 63.570313 49.597656 61.691406 49.925781 L 59.316406 50.34375 L 61.292969 51.730469 C 62.324219 52.457031 63 53.640625 63 55 C 63 57.148438 61.332031 58.863281 59.210938 58.972656 L 56.550781 59.113281 L 58.644531 60.761719 C 59.5625 61.480469 60.117188 62.59375 59.980469 63.878906 C 59.789063 65.664063 58.152344 67 56.300781 67 L 28.894531 67 C 26.53125 67 24.375 65.667969 23.316406 63.550781 L 22.421875 65 L 22.421875 63 L 14 63 L 14 65 L 21.90625 65 C 23.394531 67.441406 26.003906 69 28.894531 69 L 56.300781 69 C 59.117188 69 61.660156 66.953125 61.96875 64.09375 C 62.109375 62.75 61.636719 61.582031 60.953125 60.5625 C 63.285156 59.742188 65 57.605469 65 55 C 65 53.578125 64.382813 52.375 63.550781 51.347656 C 65.570313 50.382813 67 48.378906 67 46 C 67 44.574219 66.378906 43.371094 65.542969 42.339844 C 67.648438 41.335938 69.113281 39.207031 68.992188 36.703125 C 68.832031 33.441406 65.988281 31 62.78125 31 L 39.882813 31 C 40.238281 29.191406 40.609375 27.289063 40.902344 25.570313 C 41.257813 23.472656 41.515625 21.726563 41.515625 20.640625 C 41.511719 17.6875 40.675781 14.632813 39.230469 12.234375 C 37.78125 9.832031 35.625 8 33 8 Z M 15 47 C 14.449219 47 14 47.449219 14 48 C 14 48.550781 14.449219 49 15 49 C 15.550781 49 16 48.550781 16 48 C 16 47.449219 15.550781 47 15 47 Z M 15 51 C 14.449219 51 14 51.449219 14 52 C 14 52.550781 14.449219 53 15 53 C 15.550781 53 16 52.550781 16 52 C 16 51.449219 15.550781 51 15 51 Z M 15 55 C 14.449219 55 14 55.449219 14 56 C 14 56.550781 14.449219 57 15 57 C 15.550781 57 16 56.550781 16 56 C 16 55.449219 15.550781 55 15 55 Z M 22 55 C 21.449219 55 21 55.449219 21 56 C 21 56.550781 21.449219 57 22 57 C 22.550781 57 23 56.550781 23 56 C 23 55.449219 22.550781 55 22 55 Z M 15 59 C 14.449219 59 14 59.449219 14 60 C 14 60.550781 14.449219 61 15 61 C 15.550781 61 16 60.550781 16 60 C 16 59.449219 15.550781 59 15 59 Z M 22 59 C 21.449219 59 21 59.449219 21 60 C 21 60.550781 21.449219 61 22 61 C 22.550781 61 23 60.550781 23 60 C 23 59.449219 22.550781 59 22 59 Z" fill="#000000"/></svg>
